<svg width="258" height="325" viewBox="0 0 258 325" fill="none" xmlns="http://www.w3.org/2000/svg">
<path opacity="0.16" d="M147.35 295.22L0 208.259L46.9176 180.13L194.266 267.086L147.35 295.22Z" fill="#010101"/>
<path d="M192.476 143.153C192.475 143.135 192.473 143.117 192.47 143.1C192.455 143.012 192.429 142.93 192.387 142.854C192.385 142.849 192.385 142.845 192.382 142.841L184.281 128.888C184.281 128.888 184.28 128.887 184.278 128.885C184.244 128.829 184.205 128.775 184.158 128.729C184.127 128.698 184.09 128.675 184.054 128.649C184.035 128.637 184.02 128.619 183.999 128.607L43.934 48.1604C43.8172 48.0926 43.6841 48.0571 43.5495 48.0571H24.283C23.9942 48.0571 23.7298 48.2185 23.5983 48.4735C23.4669 48.7302 23.4896 49.0368 23.6584 49.2709L30.1352 58.2544L23.952 61.8053C23.7135 61.9424 23.5675 62.1958 23.5675 62.4686V73.0355C23.5675 73.3099 23.7135 73.5617 23.952 73.6989C24.0705 73.7667 24.2035 73.8022 24.3366 73.8022C24.4696 73.8022 24.6026 73.7683 24.7211 73.6989L31.1054 70.0319V80.815C31.1054 81.2379 31.4509 81.5817 31.876 81.5817H35.1842V195.431C35.1842 195.705 35.3302 195.957 35.5687 196.094L170.27 273.457C170.388 273.524 170.521 273.56 170.654 273.56C170.787 273.56 170.921 273.526 171.039 273.457L179.133 268.815C179.133 268.815 179.135 268.815 179.137 268.815L192.101 261.366C192.34 261.229 192.486 260.976 192.486 260.703V143.226C192.486 143.201 192.479 143.179 192.478 143.155L192.476 143.153Z" fill="#231F20"/>
<path d="M33.1594 67.966L24.335 73.0356V62.4687L33.1578 57.4023L33.1594 67.966Z" fill="#151517"/>
<path d="M191.714 260.701L178.749 268.148L174.814 148.865L191.714 143.224V260.701Z" fill="#151517"/>
<path d="M191.714 143.224L178.749 150.671L160.294 136.716L183.613 129.271L191.714 143.224Z" fill="#1A2328"/>
<path d="M31.8746 59.3551H35.9534L170.653 136.716L183.613 129.271L43.5497 48.8237H24.2832L31.8746 59.3551Z" fill="#DED9D9"/>
<path d="M31.8742 81.5816C31.4491 81.5816 31.1035 81.2395 31.1035 80.815L31.8077 59.4181C31.1489 59.0259 31.4491 58.5901 31.8742 58.5901H35.953C36.3635 58.5901 36.7009 58.9097 36.722 59.3164L37.8301 80.7763C37.8415 80.9861 37.7652 81.1911 37.6192 81.3428C37.4732 81.4961 37.272 81.5816 37.0611 81.5816H31.8758H31.8742Z" fill="#020202"/>
<path d="M37.0595 80.8151H31.1035L31.7914 59.3552H35.953L37.0595 80.8151Z" fill="#1A2328"/>
<path d="M170.653 273.558C170.52 273.558 170.387 273.525 170.268 273.455L35.5671 196.092C35.3286 195.955 35.1826 195.702 35.1826 195.429V59.3553C35.1826 59.0809 35.3286 58.8291 35.5671 58.6919C35.6856 58.6241 35.8186 58.5886 35.9517 58.5886C36.0847 58.5886 36.2177 58.6225 36.3362 58.6919L171.037 136.053C171.154 136.121 171.252 136.218 171.32 136.334L179.416 150.289C179.484 150.405 179.52 150.537 179.52 150.671V268.148C179.52 268.423 179.374 268.674 179.133 268.812L171.037 273.455C170.919 273.523 170.786 273.558 170.653 273.558Z" fill="#020202"/>
<path d="M35.1826 59.3552V195.429L170.653 272.792L178.749 268.148V150.671L170.653 136.716L35.1826 59.3552Z" fill="#D8D3D1"/>
<path d="M109.772 75.4566C109.769 75.3824 109.748 75.3113 109.721 75.2387C109.708 75.2048 109.704 75.1709 109.686 75.1386C109.682 75.1306 109.683 75.1209 109.678 75.1128L91.911 44.4951C91.9062 44.4854 91.898 44.4789 91.8915 44.4709C91.8834 44.4579 91.8737 44.4483 91.864 44.4353C91.7991 44.3466 91.7228 44.2707 91.632 44.2191C91.6303 44.2191 91.6287 44.2158 91.6271 44.2142L66.5053 29.8108C66.3868 29.743 66.2538 29.7075 66.1208 29.7075C65.9877 29.7075 65.8547 29.7414 65.7362 29.8108L57.2639 34.6706L39.5258 44.8647C39.2873 45.0019 39.1412 45.2553 39.1412 45.528L39.1299 74.3639C39.1299 74.4979 39.1656 74.6302 39.2337 74.7464L57.001 105.366C57.0692 105.482 57.1665 105.58 57.2833 105.647L82.3662 120.011C82.4847 120.079 82.6177 120.115 82.7507 120.115C82.8838 120.115 83.0168 120.081 83.1353 120.011L100.883 109.829L109.355 104.964C109.594 104.827 109.74 104.575 109.74 104.301L109.781 75.4937C109.781 75.4792 109.772 75.4679 109.771 75.4534L109.772 75.4566Z" fill="#231F20"/>
<path d="M109.012 75.4954L108.971 104.302L100.499 109.167L93.1914 79.9113L109.012 75.4954Z" fill="#E69E59"/>
<path d="M91.2426 44.8792L66.1224 30.4758L57.6484 35.3356L80.0949 55.3655L91.2426 44.8792Z" fill="#FECFA1"/>
<path d="M91.2428 44.8792L109.012 75.4953L100.526 80.3712L86.8622 68.9908L82.7559 49.7502L91.2428 44.8792Z" fill="#FFBC7B"/>
<path d="M39.9098 45.5296L39.8984 74.3671L57.6658 104.986L82.7486 119.351L100.498 109.168L100.526 80.3728L82.7567 49.7519L57.6495 35.3372L39.9114 45.5296H39.9098Z" fill="#FFAF5D"/>
<path d="M44.8421 73.4972L60.8913 101.148L83.6119 114.193L97.6249 106.145L97.6492 80.042L81.5952 52.3828L58.8697 39.3335L44.8389 47.389L44.8421 73.4972Z" fill="#EC8017"/>
<path d="M42.751 48.5897L44.8391 47.3889L44.8423 73.4971L60.8915 101.148L83.6121 114.193L81.524 115.395L58.8699 102.314L42.824 74.6624L42.751 48.5897Z" fill="#FFAF5D"/>
<path d="M177.666 140.516C177.663 140.44 177.642 140.369 177.614 140.295C177.603 140.261 177.598 140.227 177.582 140.196C177.577 140.188 177.579 140.178 177.574 140.17L159.802 109.554C159.802 109.554 159.789 109.543 159.785 109.535C159.768 109.507 159.742 109.488 159.721 109.462C159.67 109.401 159.617 109.348 159.552 109.304C159.539 109.296 159.532 109.281 159.519 109.273L134.398 94.8699C134.279 94.8021 134.146 94.7666 134.013 94.7666C133.88 94.7666 133.747 94.8005 133.628 94.8699L125.156 99.7361L107.413 109.922C107.175 110.059 107.029 110.313 107.029 110.585L107.021 139.423C107.021 139.557 107.056 139.689 107.124 139.806L124.893 170.431C124.961 170.548 125.059 170.646 125.177 170.712L150.255 185.067C150.374 185.135 150.507 185.169 150.64 185.169C150.773 185.169 150.906 185.135 151.024 185.066L168.779 174.888C168.779 174.888 168.78 174.888 168.782 174.888L177.249 170.02C177.486 169.883 177.634 169.631 177.634 169.358L177.678 140.553C177.678 140.538 177.67 140.527 177.668 140.512L177.666 140.516Z" fill="#231F20"/>
<path d="M176.906 140.554L176.862 169.36L168.394 174.227L161.087 144.97L176.906 140.554Z" fill="#E69E59"/>
<path d="M159.135 109.94L134.012 95.5364L125.541 100.401L147.987 120.431L159.135 109.94Z" fill="#FECFA1"/>
<path d="M159.135 109.94L176.906 140.554L168.419 145.43L154.753 134.05L150.651 114.814L159.135 109.94Z" fill="#FFBC7B"/>
<path d="M107.797 110.589L107.789 139.426L125.558 170.05L150.636 184.405L168.394 174.227L168.418 145.43L150.651 114.814L125.54 100.401L107.797 110.587V110.589Z" fill="#FFAF5D"/>
<path d="M112.733 138.556L128.788 166.211L151.502 179.257L165.517 171.204L165.535 145.101L149.486 117.447L126.76 104.393L112.729 112.451L112.733 138.556Z" fill="#FFAF5D"/>
<path d="M110.646 113.647L112.73 112.451L112.734 138.556L128.789 166.211L151.503 179.257L149.417 180.453L126.76 167.371L110.71 139.723L110.646 113.647Z" fill="#FFAF5D"/>
<path d="M147.982 149.97V145.663C147.982 145.663 150.143 145.056 148.85 138.335C147.549 131.614 142.956 129.889 142.956 129.889V125.07L139.927 123.862V126.963H138.022V121.961L134.641 120.41V123.941L128.495 120.41V126.706L131.349 128.257V146.781L128.495 146.006V151.52L134.295 154.102V159.017L137.758 160.224V157.037L139.925 157.124V162.032L143.387 163.239V160.139H146.504C146.504 160.139 149.282 159.969 149.708 154.712C150.142 149.454 147.981 149.974 147.981 149.974L147.982 149.97ZM143.495 151.522C142.622 155.36 137.216 150.54 137.216 150.54V145.101C140.42 146.526 144.569 146.796 143.495 151.522ZM143.495 139.031C142.622 142.875 137.216 138.049 137.216 138.049V132.61C140.42 134.035 144.569 134.305 143.495 139.031Z" fill="#0A0706"/>
<path d="M78.0799 85.916V81.6083C78.0799 81.6083 80.241 81.0014 78.9479 74.2806C77.6467 67.5599 73.0536 65.8345 73.0536 65.8345V61.0151L70.0245 59.8078V62.9083H68.1197V57.9065L64.7386 56.3555V59.8869L58.5928 56.3555V62.6517L61.4466 64.2028V82.7268L58.5928 81.952V87.4655L64.393 90.0479V94.9626L67.8553 96.1698V92.9822L70.0228 93.0693V97.9775L73.4851 99.1848V96.0843H76.6018C76.6018 96.0843 79.3794 95.9148 79.8061 90.658C80.2393 85.3996 78.0782 85.9193 78.0782 85.9193L78.0799 85.916ZM73.5922 87.4671C72.7193 91.3052 67.3134 86.4858 67.3134 86.4858V81.0466C70.5177 82.4717 74.6663 82.7413 73.5922 87.4671ZM73.5922 74.9763C72.7193 78.8209 67.3134 73.995 67.3134 73.995V68.5558C70.5177 69.9809 74.6663 70.2505 73.5922 74.9763Z" fill="#0A0706"/>
<path d="M172.387 45.7458C172.382 45.67 172.363 45.6006 172.337 45.528C172.325 45.4957 172.32 45.4618 172.303 45.4295C172.298 45.4214 172.299 45.4117 172.295 45.4037L154.522 14.7843C154.517 14.7746 154.509 14.7698 154.504 14.7601C154.496 14.7472 154.487 14.7375 154.477 14.7246C154.412 14.6342 154.334 14.5584 154.242 14.5051C154.242 14.5051 154.242 14.5051 154.24 14.5035H154.238C154.238 14.5035 154.235 14.5003 154.234 14.4986L129.117 0.103297C128.998 0.0355082 128.865 0 128.732 0C128.599 0 128.466 0.0338942 128.348 0.103297L119.875 4.9663L102.137 15.1572C101.899 15.2943 101.753 15.5477 101.753 15.8205L101.741 44.6612C101.741 44.7952 101.777 44.9275 101.845 45.0438L119.612 75.6631C119.68 75.7793 119.778 75.8778 119.896 75.944L144.981 90.2989C145.099 90.3667 145.232 90.4006 145.365 90.4006C145.498 90.4006 145.631 90.3667 145.75 90.2973L163.498 80.1178C163.498 80.1178 163.499 80.1178 163.501 80.1178L171.967 75.2564C172.204 75.1192 172.351 74.8674 172.351 74.5946L172.398 45.7878C172.398 45.7717 172.389 45.7588 172.389 45.7442L172.387 45.7458Z" fill="#231F20"/>
<path d="M171.626 45.7878L171.581 74.5947L163.113 79.4544L155.806 50.2038L171.626 45.7878Z" fill="#E69E59"/>
<path d="M153.853 15.1686L128.731 0.765137L120.259 5.62976L142.705 25.658L153.853 15.1686Z" fill="#FECFA1"/>
<path d="M153.853 15.1685L171.625 45.7878L163.134 50.6605L149.466 39.2817L145.366 20.0444L153.853 15.1685Z" fill="#FFBC7B"/>
<path d="M102.521 15.8205L102.51 44.6612L120.277 75.2806L145.362 89.6356L163.113 79.456L163.134 50.6621L145.365 20.0443L120.258 5.62964L102.519 15.8205H102.521Z" fill="#FFAF5D"/>
<path d="M107.454 43.7881L123.503 71.4393L146.224 84.4886L160.233 76.4363L160.262 50.3281L144.202 22.6753L121.478 9.6228L107.447 17.6799L107.454 43.7881Z" fill="#EC8017"/>
<path d="M105.365 18.8792L107.448 17.6816L107.453 43.7882L123.504 71.4394L146.223 84.4903L144.138 85.6831L121.478 72.6047L105.432 44.9503L105.365 18.8792Z" fill="#FFAF5D"/>
<path d="M141.698 55.2039V50.8961C141.698 50.8961 143.859 50.2892 142.566 43.5685C141.265 36.8478 136.672 35.1224 136.672 35.1224V30.303L133.643 29.0957V32.1962H131.738V27.1944L128.357 25.6433V29.1748L122.211 25.6433V31.9396L125.065 33.4906V52.0146L122.211 51.2399V56.7533L128.011 59.3357V64.2504L131.473 65.4577V62.27L133.641 62.3572V67.2654L137.103 68.4726V65.3721H140.22C140.22 65.3721 142.998 65.2027 143.424 59.9458C143.858 54.6874 141.696 55.2071 141.696 55.2071L141.698 55.2039ZM137.21 56.7549C136.338 60.5931 130.932 55.7736 130.932 55.7736V50.3344C134.136 51.7596 138.284 52.0291 137.21 56.7549ZM137.21 44.2641C136.338 48.1087 130.932 43.2828 130.932 43.2828V37.8436C134.136 39.2688 138.284 39.5383 137.21 44.2641Z" fill="#0A0706"/>
<path d="M169.827 156.167C169.825 156.144 169.822 156.123 169.819 156.101C169.802 156.012 169.778 155.928 169.734 155.85L161.64 141.896C161.64 141.896 161.638 141.894 161.638 141.892C161.604 141.836 161.564 141.783 161.517 141.736C161.494 141.713 161.466 141.699 161.442 141.679C161.414 141.658 161.39 141.634 161.359 141.616L27.0409 64.4781V63.0174L31.7914 59.3552C32.0688 59.1955 24.0167 48.0911 23.8966 48.1605L7.55053 57.5492C7.31204 57.6864 7.16602 57.9398 7.16602 58.2125V205.358C7.16602 205.633 7.31204 205.885 7.55053 206.022L147.62 286.466C147.739 286.533 147.872 286.569 148.005 286.569C148.138 286.569 148.271 286.535 148.389 286.466L156.485 281.816L169.447 274.37C169.686 274.233 169.832 273.98 169.832 273.707V156.233C169.832 156.21 169.825 156.189 169.823 156.167H169.827Z" fill="#231F20"/>
<path d="M148.006 149.724L97.8325 114.966L7.93652 69.2766V205.359L148.006 285.802L156.102 281.152V163.674L148.006 149.724Z" fill="#263A4F"/>
<path d="M155.718 163.775C155.452 163.775 155.192 163.638 155.049 163.393L147.724 150.771C147.622 150.595 147.594 150.385 147.648 150.19C147.701 149.995 147.83 149.827 148.006 149.725L160.97 142.281C161.088 142.213 161.221 142.178 161.354 142.178C161.421 142.178 161.489 142.188 161.554 142.204C161.752 142.255 161.919 142.385 162.021 142.56L169.345 155.187C169.447 155.363 169.474 155.573 169.421 155.768C169.369 155.965 169.239 156.131 169.062 156.233L156.101 163.673C155.979 163.743 155.848 163.777 155.716 163.777L155.718 163.775Z" fill="#020202"/>
<path d="M156.102 281.919C155.969 281.919 155.836 281.885 155.718 281.816C155.479 281.679 155.333 281.425 155.333 281.152V163.674C155.333 163.399 155.479 163.147 155.718 163.01L168.679 155.57C168.799 155.502 168.931 155.466 169.064 155.466C169.197 155.466 169.33 155.5 169.448 155.57C169.687 155.707 169.833 155.96 169.833 156.233V273.707C169.833 273.981 169.687 274.233 169.448 274.37L156.487 281.816C156.368 281.884 156.235 281.919 156.102 281.919Z" fill="#020202"/>
<path d="M169.064 273.707L156.103 281.152V163.673L169.064 156.233V273.707Z" fill="#151517"/>
<path d="M148.007 150.49C147.874 150.49 147.741 150.456 147.622 150.387L7.55249 69.9399C7.31399 69.8027 7.16797 69.5493 7.16797 69.2766V58.2125C7.16797 57.9381 7.31399 57.6864 7.55249 57.5492L23.8985 48.1605C24.0186 48.0911 32.0691 59.1971 31.7933 59.3552L27.0428 63.0174V64.4781L161.358 141.615C161.596 141.752 161.742 142.005 161.742 142.278C161.742 142.551 161.596 142.804 161.358 142.942L148.395 150.385C148.276 150.453 148.143 150.489 148.01 150.489L148.007 150.49Z" fill="#020202"/>
<path d="M24.2826 48.8237L7.93652 58.2124V69.2764L148.006 149.723L160.971 142.28L26.2717 64.9202V62.5751L31.749 58.5885L30.9605 53.761L24.2826 48.8237Z" fill="#DED9D9"/>
<path d="M169.064 156.233L156.103 163.673L148.007 149.723L160.97 142.278L169.064 156.233Z" fill="#1A2328"/>
<path d="M198.836 178.756L192.102 174.889C191.983 174.821 191.85 174.786 191.717 174.786C191.584 174.786 191.451 174.82 191.333 174.889C191.094 175.026 190.948 175.28 190.948 175.553V182.849L156.106 202.86L130.606 188.214C130.488 188.147 130.355 188.111 130.222 188.111C130.089 188.111 129.956 188.145 129.837 188.214L123.096 192.09C123.096 192.09 123.096 192.09 123.095 192.091L118.104 194.951C117.865 195.088 117.718 195.342 117.718 195.615V216.621C117.718 216.755 117.753 216.887 117.822 217.004L122.815 225.609C122.884 225.726 122.981 225.822 123.098 225.89L148.985 240.757C149.006 240.768 149.029 240.773 149.05 240.783C149.071 240.792 149.092 240.802 149.117 240.81C149.2 240.839 149.286 240.859 149.372 240.859H162.847C162.932 240.859 163.016 240.839 163.097 240.812C163.12 240.804 163.141 240.794 163.164 240.784C163.187 240.775 163.211 240.768 163.232 240.757L198.841 220.301C199.08 220.164 199.226 219.91 199.226 219.638V179.42C199.226 179.145 199.08 178.894 198.841 178.756H198.836Z" fill="#231F20"/>
<path d="M198.45 179.42L191.716 175.552L191.714 183.29L156.103 203.743L130.219 188.878L123.478 192.753L125.171 196.593L148.617 209.758L163.289 209.545L195.85 190.566L198.45 187.159V179.42Z" fill="#DED9D9"/>
<path d="M149.365 240.86C148.958 240.86 148.621 240.544 148.596 240.14L147.352 219.578C147.349 219.536 147.352 219.494 147.354 219.452L148.598 207.529C148.639 207.139 148.97 206.842 149.364 206.842H162.84C163.2 206.842 163.513 207.09 163.591 207.441L165.737 216.979C165.755 217.058 165.76 217.138 165.754 217.218L163.607 240.165C163.57 240.558 163.237 240.86 162.84 240.86H149.364H149.365Z" fill="#231F20"/>
<path d="M162.841 207.61H149.365L148.119 219.533L149.365 240.093H162.841L164.988 217.149L162.841 207.61Z" fill="#1A2328"/>
<path d="M149.365 240.86C149.232 240.86 149.099 240.826 148.981 240.757L123.093 225.89C122.976 225.822 122.879 225.726 122.811 225.609L117.817 217.003C117.75 216.887 117.713 216.755 117.713 216.621V195.615C117.713 195.34 117.861 195.088 118.099 194.951L123.093 192.09C123.211 192.022 123.344 191.986 123.477 191.986C123.61 191.986 123.743 192.02 123.862 192.09L149.75 206.947C149.988 207.084 150.134 207.337 150.134 207.61V240.093C150.134 240.368 149.988 240.62 149.75 240.757C149.631 240.825 149.498 240.86 149.365 240.86Z" fill="#231F20"/>
<path d="M149.365 207.61L123.477 192.753L118.483 195.615V216.621L123.477 225.227L149.365 240.093V207.61Z" fill="#D8D3D1"/>
<path d="M162.841 240.86C162.708 240.86 162.575 240.826 162.457 240.757C162.218 240.62 162.072 240.366 162.072 240.093V207.61C162.072 207.335 162.218 207.084 162.457 206.946L198.066 186.495C198.184 186.428 198.318 186.392 198.451 186.392C198.584 186.392 198.717 186.426 198.835 186.495C199.074 186.633 199.22 186.886 199.22 187.159V219.637C199.22 219.912 199.074 220.164 198.835 220.301L163.226 240.757C163.107 240.825 162.974 240.86 162.841 240.86Z" fill="#231F20"/>
<path d="M162.841 207.61L198.45 187.159V219.638L162.841 240.094V207.61Z" fill="#151517"/>
<path d="M106.625 151.378V143.581C106.625 140.432 104.378 136.587 101.615 135.01L94.775 131.112C94.775 131.112 94.775 131.112 94.7734 131.112L93.8469 130.585C93.8469 130.585 93.8469 130.585 93.8453 130.585L87.0278 126.701C86.189 126.224 85.3697 125.981 84.5909 125.981C82.5937 125.981 81.252 127.597 81.252 130.002V146.628C81.252 149.778 83.499 153.623 86.2637 155.197L93.0795 159.08C93.0795 159.08 93.0795 159.08 93.0812 159.082L94.0059 159.609C94.0059 159.609 94.0124 159.613 94.0173 159.614L100.849 163.507C101.688 163.985 102.508 164.227 103.288 164.227C105.285 164.227 106.627 162.611 106.627 160.208V151.91V151.383C106.627 151.383 106.627 151.381 106.627 151.379L106.625 151.378Z" fill="#231F20"/>
<path d="M105.854 143.579V160.205C105.854 163.104 103.773 164.29 101.23 162.839L86.6444 154.527C84.1005 153.077 82.0205 149.52 82.0205 146.623V129.997C82.0205 127.098 84.1021 125.912 86.6444 127.361L101.232 135.674C103.774 137.123 105.856 140.68 105.856 143.579H105.854Z" fill="#FFAF5D"/>
<path d="M96.5388 141.195L91.3146 138.219C90.1594 137.56 89.2119 138.099 89.2119 139.444V145.398C89.2119 146.715 90.1594 148.335 91.3146 148.996L96.5388 151.972C97.7184 152.643 98.6659 152.104 98.6659 150.785V144.83C98.6659 143.485 97.7167 141.865 96.5388 141.193V141.195ZM97.7411 150.259C97.7411 150.997 97.2089 151.3 96.5388 150.918L91.3146 147.942C90.6672 147.572 90.1351 146.663 90.1351 145.926V139.97C90.1351 139.207 90.6672 138.903 91.3146 139.273L96.5388 142.249C97.2089 142.632 97.7411 143.54 97.7411 144.304V150.258V150.259Z" fill="#837B7A"/>
<path d="M94.3887 131.776V140.498L93.4639 139.97V131.248L94.3887 131.776Z" fill="#837B7A"/>
<path d="M94.387 150.219V158.941L93.4639 158.413V149.693L94.387 150.219Z" fill="#837B7A"/>
<path d="M105.855 151.38V152.434L98.2031 148.072V147.019L105.855 151.38Z" fill="#837B7A"/>
<path d="M89.9039 142.289V143.342L82.0205 138.85V137.796L89.9039 142.289Z" fill="#837B7A"/>
<path d="M134.307 204.99C132.575 203.999 130.764 203.476 129.072 203.476C126.091 203.476 123.729 205.074 122.734 207.803L121.987 210.462C121.949 210.555 121.918 210.655 121.884 210.752L117.796 213.101C117.796 213.101 117.794 213.102 117.793 213.104C116.287 213.975 115.39 215.801 115.39 218.235C115.378 222.878 118.669 228.545 122.725 230.868C123.935 231.563 125.11 231.917 126.215 231.917C127.133 231.917 127.942 231.67 128.621 231.223L132.493 229.005C132.615 229.029 132.738 229.054 132.86 229.07C132.878 229.073 132.893 229.086 132.91 229.089L137.886 229.698C138.245 229.751 138.595 229.777 138.93 229.777C141.435 229.777 144.426 228.322 144.441 221.393C144.43 214.855 140.547 208.57 134.309 204.989L134.307 204.99Z" fill="#231F20"/>
<path d="M123.477 208.01L122.729 210.668L124.574 213.812C125.609 218.027 128.119 222.338 131.311 225.306L133.004 228.329L138 228.939C141.944 229.52 143.659 226.511 143.67 221.395C143.659 214.834 139.622 208.924 133.924 205.654C129.377 203.053 124.882 204.161 123.477 208.008V208.01Z" fill="#C3C6C4"/>
<path d="M138.062 222.723C138.054 217.707 134.512 211.587 130.146 209.09C125.746 206.57 122.204 208.607 122.204 213.632C122.198 218.656 125.746 224.78 130.131 227.285C134.517 229.811 138.05 227.774 138.062 222.723Z" fill="#EEEFEE"/>
<path d="M134.641 226.891L128.005 230.69L118.182 213.764L124.814 209.953C126.075 209.232 127.812 209.332 129.735 210.446C133.561 212.631 136.682 218.004 136.686 222.402C136.686 224.616 135.905 226.158 134.641 226.889V226.891Z" fill="#C3C6C4"/>
<path d="M130.061 226.203C130.05 221.808 126.936 216.442 123.114 214.247C119.262 212.044 116.16 213.824 116.16 218.236C116.149 222.635 119.269 228.004 123.111 230.204C126.948 232.411 130.05 230.63 130.061 226.203Z" fill="#EEEFEE"/>
<path d="M119.864 223.003C119.864 222.142 119.263 221.098 118.508 220.67C117.765 220.236 117.163 220.593 117.163 221.456C117.16 222.31 117.765 223.346 118.508 223.774C119.263 224.208 119.864 223.866 119.864 223.001V223.003Z" fill="#C3C6C4"/>
<path d="M109.56 210.236C109.548 210.229 109.544 210.218 109.532 210.212L88.9094 198.365C89.0181 197.474 89.0765 196.546 89.0765 195.571C89.0733 183.706 80.6593 169.216 70.3211 163.271C69.4467 162.766 68.5835 162.343 67.7285 161.983V138.435C67.7285 138.403 67.735 138.372 67.735 138.341C67.7317 137.496 67.1898 136.705 66.2537 136.172C65.4279 135.696 64.3506 135.435 63.2181 135.435C62.0857 135.435 61.0084 135.696 60.1858 136.171C59.2594 136.7 58.724 137.484 58.711 138.322C58.711 138.332 58.7045 138.34 58.7045 138.351V161.091C57.9517 161.309 57.2313 161.598 56.5596 161.985L54.8398 162.978C54.8139 162.992 54.7977 163.018 54.7749 163.034C51.1228 165.063 48.9212 169.458 48.8595 175.364L21.5831 159.698C21.2603 159.506 20.8952 159.409 20.4977 159.409C19.9964 159.409 19.4675 159.564 18.9256 159.872C17.2269 160.847 15.8965 163.139 15.8965 165.089C15.8965 166.198 16.3102 167.043 17.0581 167.469L50.2175 186.511C50.2159 186.603 50.2094 186.692 50.2094 186.786C50.1932 192.059 53.9297 198.499 58.5341 201.141C58.5909 201.175 58.6477 201.196 58.7045 201.228V239.393C58.7045 240.243 59.2269 241.02 60.1874 241.585C61.0116 242.051 62.0873 242.308 63.2165 242.308C64.3457 242.308 65.4214 242.051 66.2505 241.58C67.2077 241.025 67.7334 240.245 67.7269 239.391V207.968C70.6862 209.643 73.5352 210.497 76.196 210.497C78.1624 210.497 79.939 210.02 81.4722 209.111C81.5111 209.096 81.55 209.085 81.5857 209.064L83.3088 208.075C84.0129 207.671 84.657 207.184 85.2378 206.622L105.023 217.983C105.051 217.999 105.082 218.007 105.111 218.019C105.418 218.175 105.752 218.262 106.089 218.262C106.596 218.262 107.125 218.104 107.649 217.799C109.357 216.837 110.694 214.544 110.694 212.579C110.694 211.375 110.206 210.617 109.557 210.234L109.56 210.236Z" fill="#231F20"/>
<path opacity="0.3" d="M78.1365 210.714C75.1967 210.714 72.0799 209.779 68.8708 207.937C58.1675 201.794 49.4534 186.783 49.4502 174.484C49.4534 165.282 54.2672 159.332 61.7142 159.332C64.6524 159.332 67.774 160.269 70.9897 162.124C81.7042 168.273 90.407 183.282 90.3989 195.568C90.4021 200.647 88.9728 204.766 86.2584 207.477C84.1282 209.597 81.3197 210.717 78.1365 210.717V210.714Z" fill="#010101"/>
<path d="M82.9278 207.415L81.2047 208.404L81.0636 208.172C77.9729 209.098 74.1358 208.525 69.9272 206.123C59.7934 200.308 51.5709 186.126 51.5596 174.489C51.5855 169.66 52.9938 166.052 55.3528 163.849L55.2279 163.639L56.9477 162.647C60.2639 160.734 64.8668 161.007 69.9353 163.935C80.0658 169.761 88.3029 183.932 88.3062 195.573C88.3126 201.399 86.2505 205.51 82.9261 207.415H82.9278Z" fill="#D2D5D2"/>
<path d="M86.3544 196.681C86.3609 185.044 78.1351 170.873 67.9949 165.052C57.8465 159.21 49.6273 163.927 49.624 175.604C49.6273 187.252 57.8498 201.418 67.9884 207.239C78.1448 213.063 86.3674 208.346 86.356 196.683L86.3544 196.681Z" fill="#E0E2E0"/>
<path d="M53.4838 188.268C53.3492 188.268 53.2161 188.232 53.0993 188.164L17.0601 167.468C16.3122 167.042 15.8984 166.196 15.8984 165.087C15.8984 163.136 17.2288 160.844 18.9275 159.871C19.4694 159.562 19.9983 159.407 20.4997 159.407C20.8972 159.407 21.2622 159.504 21.5851 159.696L57.6113 180.386C57.9796 180.598 58.1061 181.066 57.8936 181.434L54.1523 187.885C54.0501 188.061 53.8813 188.19 53.685 188.242C53.6201 188.259 53.552 188.268 53.4854 188.268H53.4838Z" fill="#231F20"/>
<path d="M21.1887 160.355L57.2247 181.05L53.4833 187.501L17.4441 166.806C16.9607 166.53 16.667 165.935 16.667 165.089C16.667 163.423 17.8497 161.373 19.3099 160.536C20.0498 160.116 20.7117 160.072 21.1887 160.355Z" fill="#D2D5D2"/>
<path d="M55.3549 181.235C53.8979 182.078 52.707 184.118 52.707 185.792C52.7103 187.48 53.8898 188.156 55.3549 187.314C56.8183 186.486 58.0059 184.434 58.0027 182.757C58.0059 181.072 56.8264 180.396 55.3549 181.235Z" fill="#EEEFEE"/>
<path d="M63.22 242.309C62.0908 242.309 61.0151 242.053 60.1909 241.586C59.2304 241.021 58.708 240.245 58.708 239.395V197.992C58.708 197.569 59.0536 197.225 59.4787 197.225H66.9613C67.3864 197.225 67.732 197.568 67.732 197.992V239.395C67.7385 240.248 67.2128 241.028 66.2556 241.583C65.4265 242.054 64.3508 242.311 63.2216 242.311L63.22 242.309Z" fill="#231F20"/>
<path d="M66.9592 239.393V197.99H59.4766V239.393C59.4766 239.945 59.8465 240.492 60.5701 240.92C62.0384 241.751 64.4007 241.751 65.8641 240.92C66.5991 240.494 66.9625 239.945 66.9576 239.393H66.9592Z" fill="#D2D5D2"/>
<path d="M65.8648 199.521C64.3997 200.355 62.0374 200.355 60.5707 199.521C59.117 198.675 59.117 197.317 60.5707 196.483C62.0391 195.637 64.4013 195.637 65.868 196.483C67.3314 197.317 67.3314 198.675 65.8648 199.521Z" fill="#EEEFEE"/>
<path d="M64.5333 201.799C64.4668 201.799 64.4003 201.791 64.3338 201.774C64.1358 201.722 63.9671 201.593 63.8649 201.417L52.6295 182.06C52.417 181.694 52.5435 181.226 52.9118 181.013L61.9731 175.801C62.7032 175.385 63.5307 175.173 64.4327 175.173C65.6771 175.173 67.0043 175.572 68.3769 176.355C72.9619 178.979 76.6967 185.411 76.7048 190.693C76.7097 193.429 75.7395 195.487 73.9759 196.488L64.9178 201.698C64.7994 201.766 64.6664 201.801 64.5317 201.801L64.5333 201.799Z" fill="#231F20"/>
<path d="M73.5945 195.821L64.5332 201.033L53.2979 181.676L62.3592 176.464C63.808 175.636 65.7939 175.762 67.9939 177.02C72.3745 179.528 75.9276 185.666 75.9357 190.693C75.939 193.231 75.0482 194.996 73.5945 195.819V195.821Z" fill="#C3C6C4"/>
<path d="M62.473 202.33C61.2286 202.33 59.9031 201.93 58.5338 201.141C53.9293 198.499 50.1928 192.059 50.209 186.786C50.209 184.885 50.686 183.28 51.593 182.151C52.5194 180.993 53.8271 180.382 55.3716 180.382C56.6177 180.382 57.9464 180.78 59.319 181.565C63.8959 184.2 67.6243 190.634 67.6324 195.907C67.6275 199.811 65.6027 202.332 62.473 202.332V202.33Z" fill="#231F20"/>
<path d="M66.8635 195.905C66.857 190.874 63.299 184.739 58.9379 182.226C54.5233 179.704 50.9782 181.748 50.9815 186.787C50.9669 191.83 54.5314 197.956 58.9233 200.476C63.3088 203.007 66.857 200.968 66.8652 195.905H66.8635Z" fill="#EEEFEE"/>
<path d="M105.413 218.088C105.278 218.088 105.145 218.052 105.029 217.985L68.9813 197.285C68.248 196.869 67.8213 196.005 67.8164 194.919C67.8164 192.968 69.1468 190.676 70.8439 189.699C71.3906 189.388 71.9212 189.229 72.4274 189.229C72.8184 189.229 73.1786 189.323 73.4966 189.509L109.533 210.21C109.901 210.421 110.027 210.889 109.815 211.256L106.08 217.702C105.978 217.878 105.809 218.007 105.613 218.061C105.546 218.078 105.48 218.086 105.413 218.086V218.088Z" fill="#231F20"/>
<path d="M73.1067 190.172L109.146 210.875L105.411 217.323L69.3654 196.623C68.8851 196.35 68.5882 195.755 68.585 194.917C68.585 193.247 69.7726 191.202 71.2279 190.364C71.9742 189.938 72.6329 189.898 73.1067 190.172Z" fill="#D2D5D2"/>
<path d="M106.093 218.266C104.987 218.266 103.867 217.444 103.862 215.611C103.862 213.667 105.189 211.377 106.885 210.397C107.427 210.089 107.956 209.934 108.462 209.934C109.573 209.934 110.696 210.752 110.696 212.583C110.696 214.547 109.359 216.84 107.651 217.802C107.127 218.109 106.598 218.266 106.092 218.266H106.093Z" fill="#231F20"/>
<path d="M107.273 211.059C105.816 211.901 104.633 213.938 104.633 215.609C104.636 217.297 105.816 217.985 107.273 217.136C108.739 216.308 109.927 214.263 109.927 212.582C109.927 210.902 108.744 210.221 107.273 211.06V211.059Z" fill="#EEEFEE"/>
<path d="M63.2197 182.667C62.0888 182.667 61.0132 182.407 60.1873 181.936C59.2317 181.382 58.7061 180.607 58.7061 179.749V138.351C58.7061 137.928 59.0516 137.584 59.4767 137.584H66.9594C67.3845 137.584 67.7301 137.927 67.7301 138.351V179.749C67.7349 180.611 67.2092 181.389 66.2488 181.937C65.4278 182.409 64.3505 182.667 63.2197 182.667Z" fill="#231F20"/>
<path d="M66.9592 179.749V138.351H59.4766V179.749C59.4766 180.309 59.8465 180.853 60.5701 181.271C62.0384 182.11 64.4007 182.11 65.8641 181.271C66.5991 180.851 66.9625 180.307 66.9576 179.749H66.9592Z" fill="#D2D5D2"/>
<path d="M63.2197 141.269C62.0905 141.269 61.0148 141.013 60.1906 140.546C59.2431 139.991 58.7077 139.19 58.711 138.341C58.7158 137.496 59.2528 136.705 60.1874 136.171C61.0099 135.696 62.0889 135.435 63.2197 135.435C64.3505 135.435 65.4295 135.696 66.2553 136.172C67.1914 136.705 67.7333 137.496 67.7366 138.341C67.7398 139.192 67.1995 139.994 66.2537 140.543C65.4246 141.013 64.3489 141.271 63.2197 141.271V141.269Z" fill="#231F20"/>
<path d="M65.8648 139.88C64.3997 140.711 62.0374 140.711 60.5707 139.88C59.117 139.031 59.117 137.665 60.5707 136.834C62.0391 135.988 64.4013 135.988 65.868 136.834C67.3314 137.665 67.3314 139.029 65.8648 139.88Z" fill="#EEEFEE"/>
</svg>
