<svg width="18" height="18" viewBox="0 0 18 18" fill="none" xmlns="http://www.w3.org/2000/svg">
<g id="Group">
<path id="Vector" d="M9 18C13.9706 18 18 13.9706 18 9C18 4.02944 13.9706 0 9 0C4.02944 0 0 4.02944 0 9C0 13.9706 4.02944 18 9 18Z" fill="#F7931A"/>
<path id="Vector_2" d="M13.0439 7.88625C13.2205 6.70725 12.3222 6.07331 11.0948 5.65031L11.4931 4.05281L10.5211 3.81094L10.1329 5.36625C9.87757 5.30212 9.61544 5.2425 9.35388 5.18287L9.74482 3.61744L8.77282 3.375L8.37457 4.97194C8.16307 4.92356 7.95494 4.87631 7.75357 4.82569L7.75469 4.82062L6.41369 4.48594L6.15494 5.52431C6.15494 5.52431 6.87663 5.68969 6.86144 5.69981C7.25519 5.79825 7.32607 6.05869 7.31425 6.26569L6.86088 8.08537C6.88788 8.09212 6.92275 8.10225 6.96213 8.11744L6.85919 8.09212L6.22357 10.6414C6.17519 10.7606 6.05313 10.9401 5.7775 10.872C5.78763 10.8861 5.071 10.6959 5.071 10.6959L4.58838 11.8086L5.854 12.1241C6.08913 12.1832 6.31975 12.2451 6.54644 12.303L6.14425 13.9185L7.11569 14.1604L7.51394 12.5629C7.77944 12.6343 8.03707 12.7007 8.28907 12.7637L7.89194 14.3544L8.86394 14.5963L9.26613 12.9842C10.9244 13.2981 12.1709 13.1715 12.6957 11.6719C13.1187 10.4648 12.6749 9.76781 11.8024 9.31388C12.4381 9.16763 12.9162 8.74969 13.0439 7.88625ZM10.822 11.0014C10.5222 12.2091 8.48875 11.556 7.8295 11.3923L8.36388 9.252C9.02313 9.41681 11.1364 9.7425 10.822 11.0014ZM11.1229 7.86881C10.849 8.96738 9.157 8.40881 8.60857 8.27213L9.09232 6.3315C9.64075 6.46819 11.4087 6.723 11.1229 7.86881Z" fill="white"/>
</g>
</svg>
